<svg width="426" height="194" viewBox="0 0 426 194" fill="none" xmlns="http://www.w3.org/2000/svg">
<g id="sign_1">
<path id="Vector" d="M2 2C2 36.9265 2.02307 71.853 2.44444 106.778C2.78361 134.889 1.88337 163.95 5 192M2 4C18.1871 2.34584 34.5618 2.54855 50.5556 6C70.0869 10.2149 82.7835 19.436 91.8889 37.0556C96.651 46.2705 98.7238 53.406 95.2778 63.4444C90.014 78.7781 80.6469 83.8889 65.4444 86.8889C44.4175 91.0382 24.2142 92 3 92M33 189C44.4199 189.248 49.8709 173.304 52.9444 164.667C55.8858 156.4 60.3992 144.751 61.2321 134.273M61.2321 134.273C61.5205 130.646 61.3676 127.158 60.5556 124C57.2619 111.191 36.0065 124.514 46.2778 132.389C49.7043 135.016 55.3086 135.212 61.2321 134.273ZM61.2321 134.273C69.2577 133.002 77.8692 129.65 82.4444 127.444C84.2451 126.576 85.6006 125.309 87.0556 124C87.2894 123.79 90.6972 120.914 90.7778 121.056C91.4162 122.173 89.6378 129.08 89.5556 129.556C88.4014 136.236 86.9163 142.915 86.2222 149.667C85.2449 159.173 85.7028 172.406 91.4444 180.444C99.6425 191.922 116.284 186.747 121.444 175.222C123.868 169.808 125.874 164.2 127.453 158.474M127.453 158.474C129.516 150.995 130.852 143.316 131.444 135.611C131.864 130.16 134.295 120.502 129.5 116.444C125.889 113.389 126.923 118.732 126.778 121.556C126.308 130.712 125.516 140.046 126.056 149.222C126.25 152.526 126.712 155.609 127.453 158.474ZM127.453 158.474C130.389 169.826 137.695 177.733 150 182.222C153.457 183.484 159.599 185.507 163.167 183.5C170.794 179.21 175.167 166.537 178.667 159.222C183.732 148.636 187.238 137.392 190.155 125.971M190.155 125.971C192.832 115.487 195.012 104.855 197.444 94.4444C199.596 85.2367 201.857 75.9559 203.652 66.6006M190.155 125.971C188.628 114.292 188.124 102.53 187.778 90.6667C187.541 82.5327 187.187 74.3236 186.955 66.0967M190.155 125.971C190.858 131.349 191.778 136.711 193 142.056C194.861 150.195 197.108 161.464 202.778 167.889C206.821 172.471 215.854 173.632 221.333 174.833C227.619 176.211 234.171 176.326 240.324 174.823M203.652 66.6006C205.203 58.5119 206.406 50.3675 206.889 42.1667C207.465 32.3714 207.546 12.3679 196.611 7.22222C190.33 4.26636 188.524 19.5593 188.225 22.087L188.222 22.1111C186.509 36.6113 186.539 51.3825 186.955 66.0967M203.652 66.6006C214.083 66.92 224.514 67.2446 234.944 67.5555C266.966 68.5101 299.375 68.2366 331.278 71.3333C358.683 73.9935 392.299 79.1964 411.389 101.5C421.244 113.015 425.14 130.004 423.556 144.889C421.785 161.517 410.443 169.838 395.222 173.444C392.614 174.062 388.122 175.401 387.222 172C386.724 170.119 387 167.864 387 165.944C387 156.92 385.973 148.005 384.389 139.111C382.232 126.999 380.427 115.47 367.5 110.833C361.127 108.547 351.403 107.339 346.167 112.833C341.227 118.016 341.221 127.882 340.889 134.333L340.871 134.674C340.752 136.994 340.628 139.393 340.536 141.835M203.652 66.6006C198.086 66.4302 192.52 66.2613 186.955 66.0967M186.955 66.0967C180.618 65.9093 174.281 65.7275 167.944 65.5555C152.626 65.1399 106.676 64 122 64M240.324 174.823C244.62 173.774 248.722 171.937 252.404 169.19M240.324 174.823C238.224 174.333 236.295 173.217 234.944 171.444C229.065 163.728 227.717 158.094 228.056 148.444C228.358 139.829 229.893 131.171 233.611 123.333C237.993 114.095 243.241 113.069 252.667 116C263.485 119.364 263.12 133.762 262.778 143C262.527 149.775 261.893 156.387 258.803 161.96M240.324 174.823C244.7 175.844 249.818 174.146 252 170C252.141 169.733 252.275 169.462 252.404 169.19M252.404 169.19C252.585 169.055 252.765 168.917 252.944 168.778C255.522 166.77 257.411 164.47 258.803 161.96M252.404 169.19C254.874 163.964 255.272 157.817 257.778 152.556C258.205 151.658 258.584 157.093 258.803 161.96M258.803 161.96C258.927 164.729 259 167.314 259 168.444C259 177.274 274.485 178.182 280.556 176.833C289.776 174.784 294.181 167.229 296.261 158.247M296.261 158.247C297.41 153.288 297.85 147.896 298 142.755M296.261 158.247C296.352 159.584 296.451 160.91 296.556 162.222C297.303 171.619 298 167.552 298 161.889V142.755M296.261 158.247C295.565 147.922 295.43 136.949 298 126.957M298 142.755C298.156 137.421 298 132.358 298 128.333M298 142.755V128.333M298 128.333V126.957M298 126.957C298.14 126.413 298.288 125.871 298.444 125.333C302.283 112.125 317.531 102.559 329.056 113.667C336.921 121.248 339.223 131.416 340.536 141.835M298 126.957V116.556M340.536 141.835C341.416 148.827 341.851 155.932 343.222 162.444C343.466 163.601 345.086 169.325 343.889 170.222C343 170.889 342.487 168.413 342.222 167.333C340.273 159.382 340.213 150.351 340.536 141.835Z" stroke="black" stroke-width="3" stroke-linecap="round"/>
</g>
</svg>
